<?xml version="1.0" encoding="utf-8"?>
<!-- Generator: Adobe Illustrator 20.1.0, SVG Export Plug-In . SVG Version: 6.00 Build 0)  -->
<svg version="1.1" id="Слой_1" xmlns="http://www.w3.org/2000/svg" xmlns:xlink="http://www.w3.org/1999/xlink" x="0px" y="0px"
	 viewBox="0 0 40 40" style="enable-background:new 0 0 40 40;" xml:space="preserve">
<style type="text/css">
	.st0{fill:none;stroke:#000000;stroke-width:1.4173;stroke-miterlimit:10;}
	.st1{clip-path:url(#SVGID_2_);}
</style>
<circle class="st0" cx="20.1" cy="20" r="18.3"/>
<g>
	<defs>
		<rect id="SVGID_1_" x="6.3" y="10.9" width="27.8" height="19"/>
	</defs>
	<clipPath id="SVGID_2_">
		<use xlink:href="#SVGID_1_"  style="overflow:visible;"/>
	</clipPath>
	<g class="st1">
		<path d="M9.1,26c-0.6,0-1-0.4-1-1s0.4-1,1-1c2,0,4-0.8,5.4-2.2c0.4-0.4,1-0.4,1.4,0s0.4,1,0,1.4C14.1,25,11.6,26,9.1,26z"/>
	</g>
	<g class="st1">
		<path d="M20,0C9,0,0,9,0,20s9,20,20,20s20-9,20-20S31,0,20,0z M20,38c-9.9,0-18-8.1-18-18S10.1,2,20,2s18,8.1,18,18S29.9,38,20,38
			z"/>
		<path d="M31.8,25.8L29,28.6c-0.2,0.2-0.5,0.3-0.7,0.3c-0.3,0-0.5-0.1-0.7-0.3c-0.4-0.4-0.4-1,0-1.4l1.1-1.1h-2.3
			c-2.6,0-5-1-6.8-2.8l-5-5c-1.4-1.4-3.4-2.2-5.4-2.2c-0.6,0-1-0.4-1-1s0.4-1,1-1c2.5,0,5,1,6.8,2.8l5,5c1.5,1.4,3.4,2.2,5.4,2.2
			h2.3L27.6,23c-0.4-0.4-0.4-1,0-1.4s1-0.4,1.4,0l2.8,2.8C32.2,24.7,32.2,25.4,31.8,25.8z"/>
		<path d="M31.8,15.7L29,18.5c-0.2,0.2-0.5,0.3-0.7,0.3c-0.3,0-0.5-0.1-0.7-0.3c-0.4-0.4-0.4-1,0-1.4l1.1-1.1h-2.3
			c-2,0-4,0.8-5.4,2.2c-0.2,0.2-0.5,0.3-0.7,0.3c-0.3,0-0.5-0.1-0.7-0.3c-0.4-0.4-0.4-1,0-1.4c1.8-1.8,4.2-2.8,6.8-2.8h2.3l-1.1-1.1
			c-0.4-0.4-0.4-1,0-1.4s1-0.4,1.4,0l2.8,2.8C32.2,14.6,32.2,15.3,31.8,15.7z"/>
	</g>
</g>
</svg>
